
<svg width="154" height="48" viewBox="0 0 154 48" fill="none" xmlns="http://www.w3.org/2000/svg">
<path d="M142.979 22.04L138.035 14.552H137.531L130.883 5.23999H134.147L139.115 12.296H139.619L146.195 22.04H142.979ZM130.595 22.04L136.979 13.064L138.875 14.672L133.691 22.04H130.595ZM139.811 14L137.915 12.392L142.811 5.23999H145.907L139.811 14Z" fill="white"/>
<path d="M126.122 22.04V10.52H128.762V22.04H126.122ZM127.442 8.40799C126.994 8.40799 126.618 8.25599 126.314 7.95199C126.026 7.64799 125.882 7.27199 125.882 6.82399C125.882 6.37599 126.026 5.99999 126.314 5.69599C126.618 5.39199 126.994 5.23999 127.442 5.23999C127.906 5.23999 128.282 5.39199 128.57 5.69599C128.858 5.99999 129.002 6.37599 129.002 6.82399C129.002 7.27199 128.858 7.64799 128.57 7.95199C128.282 8.25599 127.906 8.40799 127.442 8.40799Z" fill="white"/>
<path d="M121.015 22.04V15.392C121.015 14.624 120.767 13.992 120.271 13.496C119.791 13 119.167 12.752 118.399 12.752C117.887 12.752 117.431 12.864 117.031 13.088C116.631 13.312 116.319 13.624 116.095 14.024C115.871 14.424 115.759 14.88 115.759 15.392L114.727 14.816C114.727 13.936 114.919 13.16 115.303 12.488C115.687 11.8 116.215 11.264 116.887 10.88C117.575 10.48 118.343 10.28 119.191 10.28C120.055 10.28 120.823 10.504 121.495 10.952C122.167 11.384 122.695 11.952 123.079 12.656C123.463 13.344 123.655 14.064 123.655 14.816V22.04H121.015ZM113.119 22.04V10.52H115.759V22.04H113.119Z" fill="white"/>
<path d="M104.355 27.08C103.139 27.08 102.075 26.856 101.163 26.408C100.251 25.976 99.5145 25.36 98.9545 24.56L100.683 22.832C101.147 23.408 101.675 23.84 102.267 24.128C102.859 24.416 103.571 24.56 104.403 24.56C105.443 24.56 106.267 24.288 106.875 23.744C107.483 23.216 107.787 22.488 107.787 21.56V18.728L108.243 16.184L107.787 13.616V10.52H110.427V21.56C110.427 22.664 110.171 23.624 109.659 24.44C109.147 25.272 108.435 25.92 107.523 26.384C106.611 26.848 105.555 27.08 104.355 27.08ZM104.235 21.8C103.211 21.8 102.283 21.552 101.451 21.056C100.635 20.544 99.9865 19.848 99.5065 18.968C99.0425 18.088 98.8105 17.104 98.8105 16.016C98.8105 14.928 99.0425 13.952 99.5065 13.088C99.9865 12.224 100.635 11.544 101.451 11.048C102.283 10.536 103.211 10.28 104.235 10.28C105.147 10.28 105.947 10.464 106.635 10.832C107.323 11.2 107.859 11.712 108.243 12.368C108.627 13.008 108.819 13.76 108.819 14.624V17.456C108.819 18.304 108.619 19.056 108.219 19.712C107.835 20.368 107.299 20.88 106.611 21.248C105.923 21.616 105.131 21.8 104.235 21.8ZM104.763 19.304C105.403 19.304 105.963 19.168 106.443 18.896C106.923 18.624 107.291 18.248 107.547 17.768C107.819 17.272 107.955 16.696 107.955 16.04C107.955 15.384 107.819 14.816 107.547 14.336C107.291 13.84 106.923 13.456 106.443 13.184C105.963 12.912 105.403 12.776 104.763 12.776C104.123 12.776 103.555 12.912 103.059 13.184C102.579 13.456 102.203 13.84 101.931 14.336C101.659 14.816 101.523 15.384 101.523 16.04C101.523 16.68 101.659 17.248 101.931 17.744C102.203 18.24 102.579 18.624 103.059 18.896C103.555 19.168 104.123 19.304 104.763 19.304Z" fill="white"/>
<path d="M91.5513 22.28C90.4313 22.28 89.4153 22.016 88.5033 21.488C87.5913 20.944 86.8633 20.216 86.3193 19.304C85.7913 18.392 85.5273 17.376 85.5273 16.256C85.5273 15.136 85.7913 14.128 86.3193 13.232C86.8633 12.336 87.5913 11.624 88.5033 11.096C89.4153 10.552 90.4313 10.28 91.5513 10.28C92.6873 10.28 93.7113 10.544 94.6233 11.072C95.5353 11.6 96.2553 12.32 96.7833 13.232C97.3273 14.128 97.5993 15.136 97.5993 16.256C97.5993 17.376 97.3273 18.392 96.7833 19.304C96.2553 20.216 95.5353 20.944 94.6233 21.488C93.7113 22.016 92.6873 22.28 91.5513 22.28ZM91.5513 19.736C92.2073 19.736 92.7833 19.592 93.2793 19.304C93.7913 19 94.1833 18.584 94.4553 18.056C94.7433 17.528 94.8873 16.928 94.8873 16.256C94.8873 15.584 94.7433 14.992 94.4553 14.48C94.1673 13.968 93.7753 13.568 93.2793 13.28C92.7833 12.976 92.2073 12.824 91.5513 12.824C90.9113 12.824 90.3353 12.976 89.8233 13.28C89.3273 13.568 88.9353 13.968 88.6473 14.48C88.3753 14.992 88.2393 15.584 88.2393 16.256C88.2393 16.928 88.3753 17.528 88.6473 18.056C88.9353 18.584 89.3273 19 89.8233 19.304C90.3353 19.592 90.9113 19.736 91.5513 19.736Z" fill="white"/>
<path d="M78.472 22.28C77.256 22.28 76.128 22.064 75.088 21.632C74.064 21.184 73.168 20.568 72.4 19.784C71.632 18.984 71.04 18.064 70.624 17.024C70.208 15.968 70 14.84 70 13.64C70 12.44 70.208 11.32 70.624 10.28C71.04 9.224 71.632 8.304 72.4 7.52C73.168 6.736 74.064 6.12 75.088 5.672C76.128 5.224 77.256 5 78.472 5C79.832 5 81.008 5.224 82 5.672C82.992 6.12 83.872 6.728 84.64 7.496L82.768 9.368C82.272 8.824 81.664 8.4 80.944 8.096C80.24 7.792 79.416 7.64 78.472 7.64C77.64 7.64 76.88 7.784 76.192 8.072C75.504 8.36 74.904 8.776 74.392 9.32C73.896 9.848 73.512 10.48 73.24 11.216C72.968 11.952 72.832 12.76 72.832 13.64C72.832 14.52 72.968 15.328 73.24 16.064C73.512 16.8 73.896 17.44 74.392 17.984C74.904 18.512 75.504 18.92 76.192 19.208C76.88 19.496 77.64 19.64 78.472 19.64C79.496 19.64 80.36 19.488 81.064 19.184C81.784 18.864 82.392 18.432 82.888 17.888L84.76 19.76C83.992 20.544 83.088 21.16 82.048 21.608C81.008 22.056 79.816 22.28 78.472 22.28Z" fill="white"/>
<path d="M73.96 40.1C73.4733 40.1 73.0167 40.01 72.59 39.83C72.17 39.6433 71.8 39.3867 71.48 39.06C71.1667 38.7333 70.92 38.3533 70.74 37.92C70.56 37.4867 70.47 37.02 70.47 36.52C70.47 36.02 70.56 35.5567 70.74 35.13C70.92 34.6967 71.17 34.3167 71.49 33.99C71.81 33.6633 72.1833 33.41 72.61 33.23C73.0433 33.05 73.5133 32.96 74.02 32.96C74.5733 32.96 75.0833 33.0667 75.55 33.28C76.0167 33.4933 76.4067 33.8 76.72 34.2L76.07 34.85C75.85 34.53 75.56 34.2867 75.2 34.12C74.84 33.9467 74.4467 33.86 74.02 33.86C73.5133 33.86 73.0633 33.9733 72.67 34.2C72.2833 34.4267 71.98 34.74 71.76 35.14C71.5467 35.54 71.44 36 71.44 36.52C71.44 37.0467 71.55 37.51 71.77 37.91C71.99 38.31 72.2867 38.6233 72.66 38.85C73.0333 39.0767 73.46 39.19 73.94 39.19C74.4267 39.19 74.8467 39.0967 75.2 38.91C75.56 38.7233 75.8367 38.45 76.03 38.09C76.2233 37.7233 76.32 37.2767 76.32 36.75L76.89 37.16H73.89V36.3H77.29V36.44C77.29 37.2467 77.1467 37.9233 76.86 38.47C76.58 39.01 76.1867 39.4167 75.68 39.69C75.18 39.9633 74.6067 40.1 73.96 40.1ZM78.2544 40V33.06H79.1944V40H78.2544ZM78.8944 40V39.14H82.8744V40H78.8944ZM78.8944 36.86V36.04H82.5444V36.86H78.8944ZM78.8944 33.92V33.06H82.8244V33.92H78.8944ZM83.8528 40V33.06H84.5128L84.7928 34.15V40H83.8528ZM88.6528 40L84.3928 34.31L84.5128 33.06L88.7828 38.74L88.6528 40ZM88.6528 40L88.3728 38.97V33.06H89.3128V40H88.6528ZM90.6524 40V33.06H91.5924V40H90.6524ZM91.2924 40V39.14H95.2724V40H91.2924ZM91.2924 36.86V36.04H94.9424V36.86H91.2924ZM91.2924 33.92V33.06H95.2224V33.92H91.2924ZM96.8809 36.98V36.19H98.7609C99.1675 36.19 99.4809 36.0867 99.7009 35.88C99.9209 35.6733 100.031 35.3933 100.031 35.04C100.031 34.7067 99.9209 34.43 99.7009 34.21C99.4875 33.99 99.1775 33.88 98.7709 33.88H96.8809V33.06H98.8009C99.2409 33.06 99.6242 33.1467 99.9509 33.32C100.278 33.4867 100.528 33.7167 100.701 34.01C100.881 34.3033 100.971 34.64 100.971 35.02C100.971 35.4133 100.881 35.7567 100.701 36.05C100.528 36.3433 100.278 36.5733 99.9509 36.74C99.6242 36.9 99.2409 36.98 98.8009 36.98H96.8809ZM96.2509 40V33.06H97.1909V40H96.2509ZM100.251 40L97.7309 36.89L98.6209 36.58L101.441 40H100.251ZM101.378 40L104.218 33.06H104.898L107.728 40H106.708L104.378 34.13H104.728L102.378 40H101.378ZM102.728 38.43V37.61H106.378V38.43H102.728ZM109.376 40V33.26H110.316V40H109.376ZM107.016 33.92V33.06H112.666V33.92H107.016ZM113.486 40V33.06H114.426V40H113.486ZM118.034 40L115.254 33.06H116.274L118.564 38.93H118.194L120.504 33.06H121.514L118.714 40H118.034ZM122.349 40V33.06H123.289V40H122.349ZM122.989 40V39.14H126.969V40H122.989ZM122.989 36.86V36.04H126.639V36.86H122.989ZM122.989 33.92V33.06H126.919V33.92H122.989ZM129.727 40V33.06H130.387L133.327 37.89H132.877L135.817 33.06H136.477V40H135.537V34.71L135.757 34.77L133.437 38.58H132.777L130.457 34.77L130.667 34.71V40H129.727ZM137.816 40V33.06H138.756V40H137.816ZM140.094 40V33.06H140.754L141.034 34.15V40H140.094ZM144.894 40L140.634 34.31L140.754 33.06L145.024 38.74L144.894 40ZM144.894 40L144.614 38.97V33.06H145.554V40H144.894ZM147.513 40V39.14H149.443C149.957 39.14 150.407 39.03 150.793 38.81C151.18 38.5833 151.48 38.2733 151.693 37.88C151.913 37.4867 152.023 37.0333 152.023 36.52C152.023 36.0133 151.913 35.5633 151.693 35.17C151.473 34.7767 151.17 34.47 150.783 34.25C150.397 34.03 149.95 33.92 149.443 33.92H147.523V33.06H149.463C149.97 33.06 150.437 33.1467 150.863 33.32C151.297 33.4933 151.67 33.7367 151.983 34.05C152.303 34.3633 152.55 34.73 152.723 35.15C152.903 35.57 152.993 36.03 152.993 36.53C152.993 37.0233 152.903 37.4833 152.723 37.91C152.55 38.33 152.307 38.6967 151.993 39.01C151.68 39.3233 151.307 39.5667 150.873 39.74C150.447 39.9133 149.983 40 149.483 40H147.513ZM146.893 40V33.06H147.833V40H146.893Z" fill="#9299A3"/>
<g clip-path="url(#clip0_5_270)">
<path d="M14.0389 21.4942C13.9931 21.4942 13.9472 21.4876 13.9014 21.4811C13.5476 21.4025 13.3249 21.0552 13.4035 20.7015C14.1438 17.3015 16.0436 14.2093 18.7557 11.9951C21.5072 9.74803 24.9859 8.51642 28.5431 8.51642C32.1004 8.51642 35.579 9.75458 38.3305 11.9951C41.0426 14.2093 42.9424 17.3015 43.6827 20.7015C43.7613 21.0552 43.532 21.4025 43.1783 21.4811C42.8245 21.5597 42.4773 21.3304 42.3987 20.9832C40.9968 14.5172 35.1663 9.82664 28.5431 9.82664C21.9199 9.82664 16.0763 14.5107 14.6744 20.9766C14.6089 21.2845 14.3403 21.4942 14.0389 21.4942ZM43.3093 28.6676C43.7875 27.1609 44.0234 25.5886 44.0234 24.0032C44.0234 23.7543 44.0168 23.4988 44.0037 23.2433C43.9841 22.883 43.6827 22.6013 43.3159 22.621C42.9556 22.6406 42.6739 22.9485 42.6935 23.3088C42.7066 23.5447 42.7132 23.7805 42.7132 24.0032C42.7132 25.4576 42.4904 26.8988 42.058 28.2746C41.9467 28.6218 42.1432 28.9886 42.4839 29.0935C42.5494 29.1131 42.6149 29.1262 42.6804 29.1262C42.9621 29.1262 43.2176 28.9493 43.3093 28.6676ZM14.5761 29.0935C14.9233 28.9821 15.1133 28.6152 15.002 28.2746C14.5696 26.8988 14.3468 25.4576 14.3468 24.0032C14.3468 23.7805 14.3534 23.5447 14.3665 23.3088C14.3862 22.9485 14.1045 22.6406 13.7441 22.621C13.3838 22.6013 13.0759 22.883 13.0563 23.2433C13.0432 23.4988 13.0366 23.7543 13.0366 24.0032C13.0366 25.5952 13.279 27.1674 13.7507 28.6676C13.8359 28.9493 14.0979 29.1262 14.373 29.1262C14.4451 29.1262 14.5106 29.1131 14.5761 29.0935ZM42.248 31.2095C42.4184 30.8885 42.2939 30.4954 41.9729 30.3251C41.6519 30.1547 41.2588 30.2792 41.0885 30.6002C38.6253 35.2777 33.8167 38.1799 28.5366 38.1799C23.2564 38.1799 18.4478 35.2777 15.9846 30.6002C15.8143 30.2792 15.4212 30.1547 15.1002 30.3251C14.7792 30.4954 14.6547 30.8885 14.8251 31.2095C17.5176 36.3193 22.7716 39.4901 28.5366 39.4901C34.3015 39.4901 39.5555 36.3193 42.248 31.2095Z" fill="url(#paint0_linear_5_270)"/>
<path d="M9.49928 11.8575C9.40101 11.8575 9.29619 11.8313 9.21103 11.7724C8.96864 11.6086 8.90313 11.2876 9.0669 11.0452C9.70891 10.0822 10.4295 9.15846 11.2091 8.29372C11.4057 8.07753 11.7332 8.06443 11.9494 8.26096C12.1656 8.4575 12.1787 8.78505 11.9821 9.00124C11.2353 9.82013 10.5475 10.7045 9.93165 11.6282C9.83994 11.7724 9.66961 11.8575 9.49928 11.8575ZM17.2296 4.72991C19.018 3.68173 20.931 2.88905 22.9356 2.37151C23.2173 2.29945 23.3876 2.0112 23.309 1.73605C23.2304 1.46091 22.9487 1.29058 22.6736 1.36264C20.5772 1.90638 18.5726 2.73182 16.6989 3.83241C16.45 3.97653 16.3648 4.29754 16.5155 4.55303C16.6138 4.71681 16.7907 4.80853 16.9675 4.80853C17.0527 4.80197 17.1444 4.78232 17.2296 4.72991ZM6.58403 19.8237C6.70195 19.1882 6.85263 18.5462 7.02951 17.9239C7.10812 17.6422 6.94434 17.3539 6.6692 17.2753C6.3875 17.1967 6.09925 17.3605 6.02064 17.6356C5.83721 18.2907 5.67998 18.9589 5.55551 19.6206C5.5031 19.9023 5.68653 20.1774 5.97478 20.2298C6.00753 20.2364 6.04029 20.2364 6.07305 20.2364C6.32199 20.2495 6.53817 20.0726 6.58403 19.8237ZM11.9494 39.7391C12.1656 39.5425 12.1787 39.215 11.9887 38.9988C10.2265 37.0531 8.83106 34.8454 7.8484 32.428C7.73703 32.1594 7.43568 32.0284 7.16708 32.1398C6.89849 32.2511 6.76746 32.5525 6.87883 32.8211C7.91391 35.3498 9.36825 37.6689 11.2157 39.6998C11.3205 39.8111 11.4581 39.8701 11.6022 39.8701C11.7201 39.8766 11.8446 39.8308 11.9494 39.7391ZM23.309 46.2705C23.3811 45.9888 23.2108 45.7071 22.9356 45.6351C20.9375 45.1175 19.0115 44.3248 17.2296 43.2701C16.9806 43.126 16.6596 43.2046 16.509 43.4535C16.3648 43.7025 16.4435 44.0235 16.6924 44.1742C18.566 45.2747 20.5772 46.1067 22.667 46.6505C22.7129 46.6636 22.7522 46.6701 22.798 46.6701C23.0339 46.6636 23.2501 46.5064 23.309 46.2705ZM45.8579 39.7063C47.7054 37.6755 49.1597 35.3564 50.1948 32.8276C50.3062 32.559 50.1751 32.2511 49.9065 32.1463C49.6379 32.0349 49.33 32.166 49.2252 32.4346C48.2426 34.8519 46.8472 37.0597 45.0849 39.0053C44.8884 39.2215 44.908 39.5491 45.1242 39.7456C45.2225 39.8373 45.3535 39.8832 45.478 39.8832C45.6156 39.8766 45.7597 39.8177 45.8579 39.7063ZM34.3935 46.6439C36.4899 46.1002 38.5011 45.2682 40.3681 44.1676C40.6171 44.0235 40.7022 43.7025 40.5515 43.447C40.4074 43.198 40.0864 43.1129 39.8309 43.2636C38.0425 44.3117 36.123 45.111 34.1249 45.6285C33.8432 45.7006 33.6729 45.9888 33.7515 46.264C33.8105 46.4998 34.0266 46.657 34.2559 46.657C34.3083 46.6636 34.3542 46.657 34.3935 46.6439ZM5.98788 27.8357C6.27613 27.7964 6.47266 27.5278 6.43336 27.2395C6.32199 26.46 6.24993 25.6607 6.21717 24.8746C6.20407 24.5863 5.96168 24.357 5.67343 24.3701C5.38518 24.3832 5.15589 24.6256 5.16899 24.9139C5.20175 25.7393 5.27381 26.5713 5.39828 27.3902C5.43759 27.6523 5.66033 27.8422 5.91582 27.8422C5.93547 27.8357 5.96168 27.8357 5.98788 27.8357ZM51.6753 27.3902C51.7933 26.5713 51.8719 25.7393 51.9046 24.9139C51.9177 24.6256 51.6884 24.3832 51.4002 24.3701C51.1119 24.357 50.8695 24.5863 50.8564 24.8746C50.8237 25.6607 50.7516 26.46 50.6403 27.2395C50.601 27.5278 50.7975 27.7898 51.0857 27.8357C51.1119 27.8422 51.1381 27.8422 51.1643 27.8422C51.4133 27.8357 51.636 27.6523 51.6753 27.3902ZM40.5581 4.54648C40.7022 4.29754 40.6236 3.97653 40.3747 3.82586C38.501 2.72527 36.4899 1.89983 34.3935 1.35609C34.1118 1.28403 33.8301 1.45436 33.758 1.7295C33.686 2.0112 33.8563 2.2929 34.1315 2.36496C36.1295 2.8825 38.049 3.67518 39.8375 4.72336C39.9226 4.76922 40.0144 4.79542 40.0995 4.79542C40.283 4.80197 40.4598 4.71026 40.5581 4.54648ZM47.856 11.7658C48.0984 11.602 48.1639 11.281 48.0002 11.0386C47.3582 10.0756 46.6375 9.15191 45.8579 8.28717C45.6614 8.07098 45.3339 8.05788 45.1177 8.25441C44.9015 8.45094 44.8884 8.7785 45.0849 8.99469C45.8317 9.81358 46.5196 10.698 47.1354 11.6217C47.2337 11.7724 47.404 11.8575 47.5743 11.8575C47.6661 11.8575 47.7643 11.8248 47.856 11.7658ZM51.0923 20.2429C51.374 20.1905 51.564 19.9154 51.5116 19.6337C51.3871 18.9655 51.2299 18.2973 51.0464 17.6487C50.9678 17.367 50.6796 17.2098 50.3979 17.2884C50.1162 17.367 49.9589 17.6553 50.0376 17.937C50.2144 18.5593 50.3651 19.2013 50.483 19.8368C50.5289 20.0857 50.7516 20.2626 51.0006 20.2626C51.0268 20.2495 51.0595 20.2495 51.0923 20.2429Z" fill="url(#paint1_linear_5_270)"/>
<path d="M10.0234 28.2026C9.78097 28.2026 9.55823 28.0322 9.51237 27.7767C9.26998 26.5386 9.14551 25.2611 9.14551 23.9967C9.14551 23.9705 9.14551 23.9378 9.14551 23.9116V23.8592C9.14551 23.5709 9.3879 23.3416 9.67615 23.3416C9.9644 23.3416 10.2002 23.5775 10.1937 23.8723C10.1937 23.8919 10.1937 23.9116 10.1937 23.9378C10.1937 23.9574 10.1937 23.9836 10.1937 24.0033C10.1937 25.2021 10.3116 26.4076 10.5409 27.5802C10.5999 27.8619 10.4099 28.137 10.1282 28.196C10.0889 28.2026 10.0561 28.2026 10.0234 28.2026ZM38.18 7.77619C38.3242 7.5207 38.2324 7.20624 37.977 7.06212C36.2737 6.11221 34.4394 5.42434 32.5395 5.02472C32.2578 4.96576 31.9761 5.14919 31.9172 5.43089C31.8582 5.71259 32.0416 5.99429 32.3233 6.05325C34.1249 6.43321 35.8544 7.08177 37.466 7.97927C37.5446 8.02513 37.6363 8.04479 37.7215 8.04479C37.9049 8.04479 38.0818 7.94652 38.18 7.77619ZM47.5547 27.7833C47.7971 26.5451 47.9215 25.2677 47.9215 24.0033C47.9215 23.9771 47.9215 23.9443 47.9215 23.9181V23.8657C47.9215 23.5775 47.6857 23.3482 47.3975 23.3482C47.3975 23.3482 47.3975 23.3482 47.3909 23.3482C47.1027 23.3482 46.8668 23.584 46.8734 23.8788V23.9443C46.8734 23.964 46.8734 23.9902 46.8734 24.0098C46.8734 25.2087 46.7554 26.4141 46.5262 27.5868C46.4672 27.8685 46.6572 28.1436 46.9389 28.2026C46.9716 28.2091 47.0044 28.2157 47.0437 28.2157C47.2861 28.2026 47.5088 28.0322 47.5547 27.7833ZM19.6011 7.97272C21.2127 7.07522 22.9422 6.42666 24.7437 6.0467C25.0254 5.98774 25.2088 5.71259 25.1499 5.42434C25.0909 5.14264 24.8092 4.95921 24.5275 5.01817C22.6211 5.41779 20.7934 6.10566 19.0901 7.05557C18.8346 7.19969 18.7494 7.51415 18.887 7.76964C18.9853 7.93997 19.1622 8.03823 19.3456 8.03823C19.4308 8.04479 19.5225 8.01858 19.6011 7.97272ZM25.1499 42.5757C25.2088 42.294 25.0254 42.0123 24.7437 41.9533C19.0704 40.761 14.2488 36.8959 11.8315 31.6026C11.7135 31.3405 11.3991 31.2226 11.137 31.3405C10.875 31.4585 10.7571 31.7729 10.875 32.035C13.4234 37.6231 18.5267 41.7175 24.521 42.9753C24.5603 42.9819 24.593 42.9884 24.6323 42.9884C24.8813 42.9884 25.0975 42.8181 25.1499 42.5757ZM10.6588 19.8433C11.386 16.7054 12.9452 13.7967 15.166 11.4317C15.3625 11.2221 15.356 10.888 15.1463 10.6914C14.9367 10.4949 14.6026 10.5015 14.4061 10.7111C12.0542 13.2071 10.4099 16.2861 9.63684 19.6009C9.57133 19.8826 9.74821 20.1643 10.0299 20.2299C10.0692 20.2364 10.1085 20.243 10.1478 20.243C10.3902 20.2495 10.6064 20.0857 10.6588 19.8433ZM32.5395 42.9819C38.5338 41.7241 43.6371 37.6362 46.1855 32.0415C46.3034 31.7795 46.1921 31.465 45.9235 31.3471C45.6614 31.2292 45.347 31.3405 45.229 31.6091C42.8182 36.8959 37.9901 40.7676 32.3168 41.9599C32.0351 42.0189 31.8517 42.294 31.9106 42.5822C31.963 42.8312 32.1792 43.0015 32.4216 43.0015C32.4675 42.9884 32.5002 42.9884 32.5395 42.9819ZM47.0371 20.2364C47.3188 20.1709 47.4957 19.8892 47.4302 19.6075C46.6637 16.2861 45.0128 13.2136 42.661 10.7176C42.4645 10.508 42.1304 10.4949 41.9207 10.698C41.7111 10.8945 41.698 11.2286 41.9011 11.4383C44.1219 13.8032 45.6811 16.7119 46.4082 19.8499C46.4672 20.0923 46.6768 20.2561 46.9192 20.2561C46.952 20.2495 46.9913 20.243 47.0371 20.2364Z" fill="url(#paint2_linear_5_270)"/>
<path d="M14.0061 7.37653C13.2134 7.37653 12.5714 6.73452 12.5714 5.94183C12.5714 5.14915 13.2134 4.50714 14.0061 4.50714C14.7988 4.50714 15.4408 5.14915 15.4408 5.94183C15.4408 6.72797 14.7988 7.37653 14.0061 7.37653ZM14.0061 5.28672C13.6458 5.28672 13.3576 5.58152 13.3576 5.93528C13.3576 6.28904 13.6524 6.58384 14.0061 6.58384C14.3599 6.58384 14.6547 6.28904 14.6547 5.93528C14.6547 5.58152 14.3599 5.28672 14.0061 5.28672ZM43.0603 7.37653C42.2676 7.37653 41.6256 6.73452 41.6256 5.94183C41.6256 5.14915 42.2676 4.50714 43.0603 4.50714C43.853 4.50714 44.495 5.14915 44.495 5.94183C44.5015 6.72797 43.853 7.37653 43.0603 7.37653ZM43.0603 5.28672C42.7 5.28672 42.4117 5.58152 42.4117 5.93528C42.4117 6.28904 42.7065 6.58384 43.0603 6.58384C43.4141 6.58384 43.7089 6.28904 43.7089 5.93528C43.7089 5.58152 43.4206 5.28672 43.0603 5.28672ZM7.32398 15.7947C6.53129 15.7947 5.88928 15.1527 5.88928 14.36C5.88928 13.5673 6.53129 12.9253 7.32398 12.9253C8.11666 12.9253 8.75867 13.5673 8.75867 14.36C8.75867 15.1527 8.11666 15.7947 7.32398 15.7947ZM7.32398 13.7049C6.96367 13.7049 6.67542 13.9997 6.67542 14.3535C6.67542 14.7072 6.97022 15.002 7.32398 15.002C7.67774 15.002 7.97254 14.7072 7.97254 14.3535C7.97254 13.9997 7.67774 13.7049 7.32398 13.7049ZM49.7424 15.7947C48.9497 15.7947 48.3077 15.1527 48.3077 14.36C48.3077 13.5673 48.9497 12.9253 49.7424 12.9253C50.5351 12.9253 51.1771 13.5673 51.1771 14.36C51.1771 15.1527 50.5351 15.7947 49.7424 15.7947ZM49.7424 13.7049C49.3821 13.7049 49.0939 13.9997 49.0939 14.3535C49.0939 14.7072 49.3887 15.002 49.7424 15.002C50.0962 15.002 50.391 14.7072 50.391 14.3535C50.391 13.9997 50.1027 13.7049 49.7424 13.7049ZM4.39563 31.3012C3.60295 31.3012 2.96094 30.6592 2.96094 29.8665C2.96094 29.0738 3.60295 28.4318 4.39563 28.4318C5.18832 28.4318 5.83032 29.0738 5.83032 29.8665C5.83032 30.6526 5.18832 31.3012 4.39563 31.3012ZM4.39563 29.2114C4.03532 29.2114 3.74707 29.5062 3.74707 29.8599C3.74707 30.2137 4.04187 30.5085 4.39563 30.5085C4.74939 30.5085 5.04419 30.2137 5.04419 29.8599C5.04419 29.5062 4.74939 29.2114 4.39563 29.2114ZM52.6708 31.3012C51.8781 31.3012 51.2361 30.6592 51.2361 29.8665C51.2361 29.0738 51.8781 28.4318 52.6708 28.4318C53.4635 28.4318 54.1055 29.0738 54.1055 29.8665C54.112 30.6526 53.4635 31.3012 52.6708 31.3012ZM52.6708 29.2114C52.3105 29.2114 52.0222 29.5062 52.0222 29.8599C52.0222 30.2137 52.317 30.5085 52.6708 30.5085C53.0245 30.5085 53.3193 30.2137 53.3193 29.8599C53.3193 29.5062 53.0311 29.2114 52.6708 29.2114ZM14.0061 43.4994C13.2134 43.4994 12.5714 42.8574 12.5714 42.0647C12.5714 41.272 13.2134 40.63 14.0061 40.63C14.7988 40.63 15.4408 41.272 15.4408 42.0647C15.4408 42.8574 14.7988 43.4994 14.0061 43.4994ZM14.0061 41.4161C13.6458 41.4161 13.3576 41.7109 13.3576 42.0647C13.3576 42.4184 13.6524 42.7132 14.0061 42.7132C14.3599 42.7132 14.6547 42.4184 14.6547 42.0647C14.6547 41.7109 14.3599 41.4161 14.0061 41.4161ZM43.0603 43.4994C42.2676 43.4994 41.6256 42.8574 41.6256 42.0647C41.6256 41.272 42.2676 40.63 43.0603 40.63C43.853 40.63 44.495 41.272 44.495 42.0647C44.495 42.8574 43.853 43.4994 43.0603 43.4994ZM43.0603 41.4161C42.7 41.4161 42.4117 41.7109 42.4117 42.0647C42.4117 42.4184 42.7065 42.7132 43.0603 42.7132C43.4141 42.7132 43.7089 42.4184 43.7089 42.0647C43.7089 41.7109 43.4206 41.4161 43.0603 41.4161Z" fill="url(#paint3_linear_5_270)"/>
<path d="M2.30599 24.7501C3.57956 24.7501 4.61198 23.7177 4.61198 22.4441C4.61198 21.1706 3.57956 20.1381 2.30599 20.1381C1.03243 20.1381 0 21.1706 0 22.4441C0 23.7177 1.03243 24.7501 2.30599 24.7501Z" fill="url(#paint4_linear_5_270)"/>
<path d="M54.7606 24.7501C56.0341 24.7501 57.0666 23.7177 57.0666 22.4441C57.0666 21.1706 56.0341 20.1381 54.7606 20.1381C53.487 20.1381 52.4546 21.1706 52.4546 22.4441C52.4546 23.7177 53.487 24.7501 54.7606 24.7501Z" fill="url(#paint5_linear_5_270)"/>
<path d="M28.5301 4.61198C29.8037 4.61198 30.8361 3.57956 30.8361 2.30599C30.8361 1.03243 29.8037 0 28.5301 0C27.2565 0 26.2241 1.03243 26.2241 2.30599C26.2241 3.57956 27.2565 4.61198 28.5301 4.61198Z" fill="url(#paint6_linear_5_270)"/>
<path d="M28.5301 48C29.8037 48 30.8361 46.9676 30.8361 45.694C30.8361 44.4204 29.8037 43.388 28.5301 43.388C27.2565 43.388 26.2241 44.4204 26.2241 45.694C26.2241 46.9676 27.2565 48 28.5301 48Z" fill="url(#paint7_linear_5_270)"/>
<path d="M17.7993 10.7897C17.6683 10.7897 17.5307 10.7373 17.4259 10.639L16.0305 9.23706C15.8274 9.03398 15.8274 8.69987 16.0305 8.49679C16.2336 8.2937 16.5677 8.2937 16.7708 8.49679L18.1662 9.89217C18.3693 10.0953 18.3693 10.4294 18.1662 10.6325C18.0614 10.7373 17.9303 10.7897 17.7993 10.7897ZM39.6407 10.639L41.0361 9.24362C41.2392 9.04053 41.2392 8.70642 41.0361 8.50334C40.833 8.30025 40.4989 8.30025 40.2958 8.50334L38.9005 9.89873C38.6974 10.1018 38.6974 10.4359 38.9005 10.639C39.0053 10.7438 39.1363 10.7897 39.2739 10.7897C39.4114 10.7897 39.5359 10.7373 39.6407 10.639ZM12.054 22.2803C12.054 21.9921 11.8182 21.7562 11.5299 21.7562H6.53141C6.24316 21.7562 6.00732 21.9921 6.00732 22.2803C6.00732 22.5686 6.24316 22.8044 6.53141 22.8044H11.5299C11.8182 22.8044 12.054 22.5686 12.054 22.2803ZM50.5352 22.8044H45.5367C45.2485 22.8044 45.0126 22.5686 45.0126 22.2803C45.0126 21.9921 45.2485 21.7562 45.5367 21.7562H50.5352C50.8235 21.7562 51.0593 21.9921 51.0593 22.2803C51.0593 22.5686 50.8235 22.8044 50.5352 22.8044ZM12.6895 30.3841H7.69096C7.40271 30.3841 7.16687 30.1482 7.16687 29.86C7.16687 29.5717 7.40271 29.3359 7.69096 29.3359H12.6895C12.9777 29.3359 13.2135 29.5717 13.2135 29.86C13.2135 30.1482 12.9777 30.3841 12.6895 30.3841ZM49.3822 30.3841H44.3837C44.0955 30.3841 43.8596 30.1482 43.8596 29.86C43.8596 29.5717 44.0955 29.3359 44.3837 29.3359H49.3822C49.6705 29.3359 49.9063 29.5717 49.9063 29.86C49.9063 30.1482 49.6705 30.3841 49.3822 30.3841ZM28.53 7.64514C28.2418 7.64514 28.006 7.4093 28.006 7.12105V6.40043C28.006 6.11218 28.2418 5.87634 28.53 5.87634C28.8183 5.87634 29.0541 6.11218 29.0541 6.40043V7.1145C29.0541 7.4093 28.8248 7.64514 28.53 7.64514ZM28.53 42.2612C28.2418 42.2612 28.006 42.0254 28.006 41.7371V41.0231C28.006 40.7348 28.2418 40.499 28.53 40.499C28.8183 40.499 29.0541 40.7348 29.0541 41.0231V41.7371C29.0541 42.0254 28.8248 42.2612 28.53 42.2612Z" fill="url(#paint8_linear_5_270)"/>
<path d="M7.16036 8.81126C7.59815 8.81126 7.95305 8.45636 7.95305 8.01858C7.95305 7.58079 7.59815 7.22589 7.16036 7.22589C6.72257 7.22589 6.36768 7.58079 6.36768 8.01858C6.36768 8.45636 6.72257 8.81126 7.16036 8.81126Z" fill="url(#paint9_linear_5_270)"/>
<path d="M2.07035 14.9038C2.4792 14.9038 2.81063 14.5723 2.81063 14.1635C2.81063 13.7547 2.4792 13.4232 2.07035 13.4232C1.66151 13.4232 1.33008 13.7547 1.33008 14.1635C1.33008 14.5723 1.66151 14.9038 2.07035 14.9038Z" fill="url(#paint10_linear_5_270)"/>
<path d="M54.9903 14.9038C55.3991 14.9038 55.7306 14.5723 55.7306 14.1635C55.7306 13.7547 55.3991 13.4232 54.9903 13.4232C54.5814 13.4232 54.25 13.7547 54.25 14.1635C54.25 14.5723 54.5814 14.9038 54.9903 14.9038Z" fill="url(#paint11_linear_5_270)"/>
<path d="M2.53528 37.5444C2.93689 37.5444 3.26245 37.2189 3.26245 36.8173C3.26245 36.4157 2.93689 36.0901 2.53528 36.0901C2.13367 36.0901 1.80811 36.4157 1.80811 36.8173C1.80811 37.2189 2.13367 37.5444 2.53528 37.5444Z" fill="url(#paint12_linear_5_270)"/>
<path d="M54.525 37.5444C54.9266 37.5444 55.2522 37.2189 55.2522 36.8173C55.2522 36.4157 54.9266 36.0901 54.525 36.0901C54.1234 36.0901 53.7979 36.4157 53.7979 36.8173C53.7979 37.2189 54.1234 37.5444 54.525 37.5444Z" fill="url(#paint13_linear_5_270)"/>
<path d="M49.9065 8.81126C50.3442 8.81126 50.6991 8.45636 50.6991 8.01858C50.6991 7.58079 50.3442 7.22589 49.9065 7.22589C49.4687 7.22589 49.1138 7.58079 49.1138 8.01858C49.1138 8.45636 49.4687 8.81126 49.9065 8.81126Z" fill="url(#paint14_linear_5_270)"/>
<path d="M27.7769 24.226V28.0453C27.7769 28.4056 27.4821 28.7004 27.1218 28.7004C26.7615 28.7004 26.4667 28.4056 26.4667 28.0453V24.5274L23.7152 22.1624C23.44 21.9266 23.4073 21.5138 23.6431 21.2387C23.879 20.9635 24.2917 20.9308 24.5668 21.1666L27.5476 23.7216C27.6917 23.8591 27.7769 24.036 27.7769 24.226ZM27.1218 30.2268C26.7615 30.2268 26.4667 30.5216 26.4667 30.8819V32.5787C26.4667 33.4369 25.7722 34.1313 24.914 34.1313H24.5668C24.2065 34.1313 23.9117 34.4261 23.9117 34.7864C23.9117 35.1467 24.2065 35.4415 24.5668 35.4415H24.914C26.4929 35.4415 27.7769 34.1575 27.7769 32.5787V30.8819C27.7769 30.5216 27.4821 30.2268 27.1218 30.2268ZM25.0123 30.6264V25.9031C25.0123 25.7131 24.9271 25.5297 24.783 25.4052L21.383 22.4965C20.7475 21.9528 19.8173 21.9528 19.1818 22.4965L16.9937 24.3636C16.7186 24.5994 16.6858 25.0121 16.9217 25.2873C17.1575 25.5624 17.5702 25.5952 17.8454 25.3593L20.0335 23.4923C20.1776 23.3678 20.3872 23.3678 20.5313 23.4923L23.7021 26.2044V30.6264C23.7021 31.4846 23.0077 32.1791 22.1495 32.1791H21.9922C21.6974 32.1791 21.4092 32.0939 21.1603 31.9367C20.8523 31.7401 20.4527 31.8318 20.2562 32.1397C20.0597 32.4477 20.1514 32.8473 20.4593 33.0438C20.9179 33.3386 21.4485 33.4893 21.9988 33.4893H22.156C23.7283 33.4893 25.0123 32.2053 25.0123 30.6264ZM22.3067 29.8796C22.536 29.5979 22.4901 29.1852 22.2084 28.9559C21.9267 28.7266 21.514 28.7725 21.2847 29.0542C21.0554 29.3424 20.7148 29.5062 20.3479 29.5062C19.6863 29.5062 19.1425 28.969 19.1425 28.3008C19.1425 27.6391 19.6797 27.0954 20.3479 27.0954C20.7148 27.0954 21.0554 27.2592 21.2847 27.5474C21.514 27.8291 21.9267 27.875 22.2084 27.6457C22.4901 27.4164 22.536 27.0037 22.3067 26.722C21.8285 26.1258 21.1144 25.7852 20.3479 25.7852C18.9656 25.7852 17.8323 26.912 17.8323 28.3008C17.8323 29.6896 18.9591 30.8164 20.3479 30.8164C21.1144 30.823 21.8285 30.4758 22.3067 29.8796ZM22.7784 19.6533C22.7784 19.1096 22.3395 18.6641 21.7892 18.6641C21.2389 18.6641 20.7999 19.103 20.7999 19.6533C20.7999 20.2036 21.2389 20.6425 21.7892 20.6425C22.3395 20.6425 22.7784 20.1971 22.7784 19.6533ZM24.4162 18.8279C24.9599 18.8279 25.4054 18.389 25.4054 17.8387C25.4054 17.2884 24.9664 16.8495 24.4162 16.8495C23.8659 16.8495 23.4269 17.2884 23.4269 17.8387C23.4269 18.389 23.8724 18.8279 24.4162 18.8279ZM24.4031 12.5585C22.5491 12.5585 21.0423 14.0587 21.0292 15.9061H21.003C19.3652 15.9061 18.0354 17.236 18.0354 18.8737V19.2865L16.4631 20.8587C16.2076 21.1142 16.2076 21.5269 16.4631 21.7824C16.5941 21.9135 16.7579 21.9724 16.9282 21.9724C17.0986 21.9724 17.2623 21.9069 17.3934 21.7824L19.1556 20.0202C19.2801 19.8957 19.3456 19.7319 19.3456 19.5551V18.8737C19.3456 17.9631 20.0859 17.2163 21.003 17.2163H21.6843C22.0447 17.2163 22.3395 16.9215 22.3395 16.5612V15.9323C22.3395 14.7924 23.2632 13.8687 24.4031 13.8687C25.5429 13.8687 26.4667 14.7924 26.4667 15.9323V20.1185C26.4667 20.4788 26.7615 20.7736 27.1218 20.7736C27.4821 20.7736 27.7769 20.4788 27.7769 20.1185V15.9323C27.7769 14.0718 26.2636 12.5585 24.4031 12.5585ZM32.5002 34.1313H32.153C31.2948 34.1313 30.6004 33.4369 30.6004 32.5787V28.0519V26.2896V24.5339L33.3519 22.169C33.627 21.9331 33.6598 21.5204 33.4239 21.2452C33.1881 20.9701 32.7754 20.9373 32.5002 21.1732L29.5195 23.7281C29.3753 23.8526 29.2902 24.036 29.2902 24.226V26.2831V28.0453V32.5721C29.2902 34.1509 30.5742 35.435 32.153 35.435H32.5002C32.8605 35.435 33.1553 35.1402 33.1553 34.7798C33.1553 34.4195 32.8605 34.1313 32.5002 34.1313ZM40.0733 24.3636L37.8852 22.4965C37.2432 21.9528 36.3195 21.9528 35.6841 22.4965L32.284 25.4052C32.1399 25.5297 32.0548 25.7131 32.0548 25.9031V27.6653C32.0548 28.0256 32.3496 28.3204 32.7099 28.3204C33.0702 28.3204 33.365 28.0256 33.365 27.6653V26.2044L36.5357 23.4923C36.6798 23.3678 36.8895 23.3678 37.0336 23.4923L39.2217 25.3593C39.4968 25.5952 39.9095 25.5624 40.1454 25.2873C40.3878 25.0121 40.3485 24.5929 40.0733 24.3636ZM35.9134 31.9367C35.6644 32.0939 35.3762 32.1791 35.0814 32.1791H34.9176C34.0594 32.1791 33.365 31.4846 33.365 30.6264V29.991C33.365 29.6307 33.0702 29.3359 32.7099 29.3359C32.3496 29.3359 32.0548 29.6307 32.0548 29.991V30.6264C32.0548 32.2053 33.3388 33.4893 34.9176 33.4893H35.0748C35.6186 33.4893 36.1558 33.3321 36.6143 33.0438C36.9222 32.8473 37.0074 32.4477 36.8174 32.1397C36.6209 31.8318 36.2147 31.7467 35.9134 31.9367ZM36.7191 25.7983C35.9527 25.7983 35.2386 26.1389 34.7604 26.7351C34.5311 27.0168 34.5769 27.4295 34.8586 27.6588C35.1403 27.8881 35.553 27.8422 35.7823 27.5605C36.0116 27.2723 36.3523 27.1085 36.7191 27.1085C37.3808 27.1085 37.9245 27.6457 37.9245 28.3139C37.9245 28.9756 37.3874 29.5193 36.7191 29.5193C36.3523 29.5193 36.0116 29.3555 35.7823 29.0673C35.553 28.7856 35.1403 28.7397 34.8586 28.969C34.5769 29.1983 34.5311 29.611 34.7604 29.8927C35.2386 30.4889 35.9527 30.8295 36.7191 30.8295C38.1014 30.8295 39.2348 29.7027 39.2348 28.3139C39.2348 26.9251 38.1014 25.7983 36.7191 25.7983ZM36.2606 19.6533C36.2606 19.1096 35.8216 18.6641 35.2713 18.6641C34.7211 18.6641 34.2821 19.103 34.2821 19.6533C34.2821 20.2036 34.7211 20.6425 35.2713 20.6425C35.8216 20.6425 36.2606 20.1971 36.2606 19.6533ZM33.6336 17.8452C33.6336 17.3015 33.1946 16.856 32.6444 16.856C32.0941 16.856 31.6551 17.2949 31.6551 17.8452C31.6551 18.3955 32.0941 18.8344 32.6444 18.8344C33.1946 18.8344 33.6336 18.389 33.6336 17.8452ZM40.604 20.8587L39.0317 19.2865V18.8737C39.0317 17.236 37.7018 15.9061 36.064 15.9061H36.0378C36.0247 14.0587 34.518 12.5585 32.664 12.5585C30.8035 12.5585 29.2902 14.0718 29.2902 15.9323V20.1185C29.2902 20.4788 29.585 20.7736 29.9453 20.7736C30.3056 20.7736 30.6004 20.4788 30.6004 20.1185V15.9323C30.6004 14.7924 31.5241 13.8687 32.664 13.8687C33.8039 13.8687 34.7276 14.7924 34.7276 15.9323V16.5612C34.7276 16.9215 35.0224 17.2163 35.3827 17.2163H36.064C36.9746 17.2163 37.7215 17.9566 37.7215 18.8737V19.5551C37.7215 19.7319 37.7935 19.8957 37.9114 20.0202L39.6737 21.7824C39.8047 21.9135 39.9685 21.9724 40.1388 21.9724C40.3092 21.9724 40.4729 21.9069 40.604 21.7824C40.8594 21.5269 40.8594 21.1142 40.604 20.8587Z" fill="url(#paint15_linear_5_270)"/>
</g>
<defs>
<linearGradient id="paint0_linear_5_270" x1="28.5331" y1="39.493" x2="28.5331" y2="8.5086" gradientUnits="userSpaceOnUse">
<stop stop-color="#C3271B"/>
<stop offset="0.8287" stop-color="#FABE75"/>
</linearGradient>
<linearGradient id="paint1_linear_5_270" x1="28.5333" y1="46.662" x2="28.5333" y2="1.33966" gradientUnits="userSpaceOnUse">
<stop stop-color="#121E2A"/>
<stop offset="1" stop-color="#475C70"/>
</linearGradient>
<linearGradient id="paint2_linear_5_270" x1="28.5333" y1="42.9902" x2="28.5333" y2="5.01146" gradientUnits="userSpaceOnUse">
<stop stop-color="#121E2A"/>
<stop offset="1" stop-color="#475C70"/>
</linearGradient>
<linearGradient id="paint3_linear_5_270" x1="28.533" y1="43.5025" x2="28.533" y2="4.49912" gradientUnits="userSpaceOnUse">
<stop stop-color="#C3271B"/>
<stop offset="0.8287" stop-color="#FABE75"/>
</linearGradient>
<linearGradient id="paint4_linear_5_270" x1="2.30545" y1="24.7479" x2="2.30545" y2="20.137" gradientUnits="userSpaceOnUse">
<stop stop-color="#C3271B"/>
<stop offset="0.8287" stop-color="#FABE75"/>
</linearGradient>
<linearGradient id="paint5_linear_5_270" x1="54.7606" y1="24.7479" x2="54.7606" y2="20.137" gradientUnits="userSpaceOnUse">
<stop stop-color="#C3271B"/>
<stop offset="0.8287" stop-color="#FABE75"/>
</linearGradient>
<linearGradient id="paint6_linear_5_270" x1="28.5331" y1="4.6109" x2="28.5331" y2="0" gradientUnits="userSpaceOnUse">
<stop stop-color="#C3271B"/>
<stop offset="0.8287" stop-color="#FABE75"/>
</linearGradient>
<linearGradient id="paint7_linear_5_270" x1="28.5331" y1="48.0016" x2="28.5331" y2="43.3907" gradientUnits="userSpaceOnUse">
<stop stop-color="#C3271B"/>
<stop offset="0.8287" stop-color="#FABE75"/>
</linearGradient>
<linearGradient id="paint8_linear_5_270" x1="28.5331" y1="42.2608" x2="28.5331" y2="5.878" gradientUnits="userSpaceOnUse">
<stop stop-color="#C3271B"/>
<stop offset="0.8287" stop-color="#FABE75"/>
</linearGradient>
<linearGradient id="paint9_linear_5_270" x1="7.16042" y1="8.80939" x2="7.16042" y2="7.22592" gradientUnits="userSpaceOnUse">
<stop stop-color="#121E2A"/>
<stop offset="1" stop-color="#475C70"/>
</linearGradient>
<linearGradient id="paint10_linear_5_270" x1="2.07348" y1="14.9032" x2="2.07348" y2="13.4216" gradientUnits="userSpaceOnUse">
<stop stop-color="#C3271B"/>
<stop offset="0.8287" stop-color="#FABE75"/>
</linearGradient>
<linearGradient id="paint11_linear_5_270" x1="54.9932" y1="14.9032" x2="54.9932" y2="13.4216" gradientUnits="userSpaceOnUse">
<stop stop-color="#121E2A"/>
<stop offset="1" stop-color="#475C70"/>
</linearGradient>
<linearGradient id="paint12_linear_5_270" x1="2.53816" y1="37.5442" x2="2.53816" y2="36.0886" gradientUnits="userSpaceOnUse">
<stop stop-color="#C3271B"/>
<stop offset="0.8287" stop-color="#FABE75"/>
</linearGradient>
<linearGradient id="paint13_linear_5_270" x1="54.5282" y1="37.5442" x2="54.5282" y2="36.0886" gradientUnits="userSpaceOnUse">
<stop stop-color="#121E2A"/>
<stop offset="1" stop-color="#475C70"/>
</linearGradient>
<linearGradient id="paint14_linear_5_270" x1="49.9059" y1="8.80939" x2="49.9059" y2="7.22592" gradientUnits="userSpaceOnUse">
<stop stop-color="#C3271B"/>
<stop offset="0.8287" stop-color="#FABE75"/>
</linearGradient>
<linearGradient id="paint15_linear_5_270" x1="28.5333" y1="35.4418" x2="28.5333" y2="12.5598" gradientUnits="userSpaceOnUse">
<stop stop-color="#C3271B"/>
<stop offset="0.8287" stop-color="#FABE75"/>
</linearGradient>
<clipPath id="clip0_5_270">
<rect width="57.0667" height="48" fill="white"/>
</clipPath>
</defs>
</svg>
